<svg width="31" height="23" viewBox="0 0 31 23" fill="none" xmlns="http://www.w3.org/2000/svg">
<path d="M18.6487 0.649902C18.2913 1.59326 10.5803 22.8218 10.5803 22.8569C10.5803 22.8804 11.1721 22.9038 11.8928 22.9038H12.9306C13.0923 22.9038 13.2368 22.8033 13.2932 22.6519C13.6565 21.6968 21.3616 0.48584 21.3616 0.450684C21.3616 0.427246 20.7698 0.403809 20.0491 0.403809H19.0058C18.8472 0.403809 18.7051 0.501728 18.6487 0.649902Z" fill="white"/>
<path d="M4.46899 8.1264C2.53755 10.0578 2.54179 13.1927 4.47485 15.1225C6.39673 17.0502 7.99634 18.644 8.01978 18.6674C8.04321 18.6909 8.45923 18.3159 8.9397 17.8354C9.4251 17.35 9.4251 16.563 8.9397 16.0776L7.17017 14.308C5.70424 12.8421 5.70424 10.4654 7.17017 8.99945L8.95142 7.2182C9.43035 6.73926 9.43035 5.96276 8.95142 5.48382C8.47681 5.00921 8.06079 4.62249 8.03149 4.62249C7.99634 4.62249 6.39673 6.19867 4.46899 8.1264Z" fill="white"/>
<path d="M22.9846 5.48382V5.48382C22.5084 5.96323 22.5098 6.73748 22.9876 7.21527L24.7717 8.99945V8.99945C26.2377 10.4654 26.2377 12.8421 24.7717 14.308V14.308L23.0022 16.0776C22.5168 16.563 22.5168 17.35 23.0022 17.8354V17.8354C23.4827 18.3159 23.8987 18.6909 23.9221 18.6674C23.9456 18.644 25.5452 17.0502 27.467 15.1225V15.1225C29.4001 13.1927 29.4043 10.0578 27.4729 8.1264V8.1264C25.5452 6.19867 23.9456 4.62249 23.9104 4.62249C23.8752 4.62249 23.4651 5.00921 22.9846 5.48382Z" fill="white"/>
</svg>
