<svg width="31" height="20" viewBox="0 0 31 20" fill="none" xmlns="http://www.w3.org/2000/svg">
<path d="M14.8389 0.831585C11.3803 1.24262 8.17421 2.83981 4.76845 5.85214C3.57644 6.90322 1.6152 9.02301 1.1102 9.80986C0.898812 10.1387 0.898812 10.5967 1.1102 10.9255C1.38032 11.3483 2.51948 12.6695 3.32982 13.4975C6.22471 16.4804 9.44843 18.5709 12.4901 19.4399C13.8113 19.8157 14.4807 19.9038 15.9546 19.9038C17.4285 19.9038 18.0979 19.8157 19.4191 19.4399C22.9834 18.4182 26.9 15.6407 30.0239 11.9062C30.8812 10.8844 30.9517 10.7611 30.9517 10.3677C30.9517 9.97427 30.8812 9.85096 30.0239 8.82924C26.9176 5.12401 23.0127 2.34068 19.4778 1.31309C18.2916 0.96664 17.5048 0.855072 16.2188 0.831585C15.5729 0.813969 14.9505 0.819839 14.8389 0.831585ZM17.3932 2.88091C20.1589 3.29782 23.1713 4.92436 26.0662 7.57263C26.9528 8.37709 28.6968 10.2385 28.6968 10.3736C28.6968 10.3912 28.4972 10.6437 28.2447 10.9255C24.8272 14.8363 20.9399 17.3201 17.3932 17.8545C16.6416 17.9661 15.2676 17.9661 14.516 17.8545C11.9616 17.4669 9.23704 16.0753 6.53005 13.7793C5.54943 12.9514 3.21238 10.5439 3.21238 10.3677C3.21238 10.3442 3.41202 10.0917 3.66452 9.80986C7.05853 5.92847 10.9458 3.43288 14.4631 2.88678C15.1795 2.77521 16.6651 2.77521 17.3932 2.88091Z" fill="white"/>
<path d="M15.1325 4.4722C12.5899 4.93608 10.7814 6.59199 10.1648 9.01712C10.0063 9.63955 10.0063 11.0958 10.1648 11.7182C10.7344 13.9496 12.3727 15.5879 14.604 16.1575C15.2265 16.316 16.6827 16.316 17.3051 16.1575C19.5365 15.5879 21.1748 13.9496 21.7444 11.7182C21.8325 11.3777 21.8559 11.0723 21.8559 10.3677C21.8559 9.66304 21.8325 9.35769 21.7444 9.01712C21.1865 6.81512 19.5952 5.20033 17.3932 4.60138C16.9939 4.48981 15.4966 4.40761 15.1325 4.4722ZM16.8941 6.52739C17.9922 6.77402 18.9963 7.57848 19.5071 8.63544C19.8125 9.26374 19.9064 9.74525 19.8771 10.5438C19.8477 11.3013 19.7009 11.8122 19.3486 12.4111C19.102 12.8339 18.4208 13.5151 17.998 13.7617C16.7591 14.4898 15.1501 14.4898 13.9111 13.7617C13.4884 13.5151 12.8072 12.8339 12.5606 12.4111C11.8325 11.1721 11.8325 9.56321 12.5606 8.32422C12.8072 7.90144 13.4884 7.22029 13.9111 6.97367C14.7978 6.45106 15.8371 6.29251 16.8941 6.52739Z" fill="white"/>
</svg>
